<svg xmlns="http://www.w3.org/2000/svg" viewBox="0 0 256 256" fill="none">
  <defs>
    <linearGradient id="plyx" x1="0" y1="0" x2="256" y2="256" gradientUnits="userSpaceOnUse">
      <stop offset="0" stop-color="#7c6cfa"/>
      <stop offset="1" stop-color="#a78bfa"/>
    </linearGradient>
  </defs>
  <rect width="256" height="256" rx="64" fill="url(#plyx)"/>
  <g transform="translate(64 64) scale(0.5)">
    <path fill="#ffffff" d="M232,96a72,72,0,0,1-100.94,66L79,222.22c-.12.14-.26.29-.39.42a32,32,0,0,1-45.26-45.26c.14-.13.28-.27.43-.39L94,124.94a72.07,72.07,0,0,1,83.54-98.78,8,8,0,0,1,3.93,13.19L144,80l5.66,26.35L176,112l40.65-37.52a8,8,0,0,1,13.19,3.93A72.6,72.6,0,0,1,232,96Z"/>
  </g>
</svg>
